<?xml version="1.0" standalone="no"?>
<!DOCTYPE svg PUBLIC "-//W3C//DTD SVG 20010904//EN"
 "http://www.w3.org/TR/2001/REC-SVG-20010904/DTD/svg10.dtd">
<svg version="1.0" xmlns="http://www.w3.org/2000/svg"
 width="855.000000pt" height="855.000000pt" viewBox="0 0 855.000000 855.000000"
 preserveAspectRatio="xMidYMid meet">

<g transform="translate(0.000000,855.000000) scale(0.100000,-0.100000)"
fill="#000000" stroke="none">
<path d="M4145 7444 c-1074 -50 -2037 -622 -2590 -1539 -236 -392 -382 -833
-436 -1315 -15 -135 -15 -495 0 -630 84 -752 393 -1404 915 -1926 522 -522
1174 -831 1926 -915 58 -6 200 -11 315 -11 218 0 340 9 535 42 996 169 1865
818 2310 1725 167 341 267 691 311 1085 15 135 15 495 0 630 -84 752 -393
1404 -915 1926 -521 520 -1196 841 -1921 913 -118 12 -351 19 -450 15z m-101
-1040 c19 -18 19 -19 6 -64 -5 -20 -26 -51 -45 -70 -44 -43 -44 -67 0 -110 67
-65 69 -134 5 -204 -20 -23 -40 -53 -44 -68 -11 -45 -71 -48 -82 -4 -7 31 11
73 51 118 19 21 35 46 35 56 0 10 -16 33 -35 52 -69 67 -68 140 0 213 19 20
35 45 35 55 0 39 45 55 74 26z m264 4 c28 -28 12 -78 -44 -141 -19 -20 -34
-43 -34 -50 0 -6 18 -31 39 -55 66 -72 67 -141 1 -213 -21 -24 -40 -52 -42
-63 -4 -28 -34 -44 -55 -30 -39 24 -25 99 28 150 36 34 37 63 3 95 -38 35 -54
72 -54 124 0 39 5 51 40 89 22 24 40 50 40 59 0 37 53 60 78 35z m260 0 c28
-28 7 -101 -42 -147 -14 -14 -26 -34 -26 -46 0 -12 12 -32 26 -46 71 -66 73
-149 7 -220 -13 -15 -32 -42 -41 -60 -12 -24 -24 -34 -41 -34 -57 0 -52 79 9
147 22 23 40 48 40 53 0 6 -16 28 -35 48 -40 43 -55 74 -55 118 0 37 13 63 56
112 19 20 34 43 34 50 0 18 21 37 40 37 9 0 21 -5 28 -12z m440 -750 c7 -7 12
-43 12 -90 l0 -78 -561 -2 c-523 -3 -563 -4 -573 -20 -8 -13 -8 -23 0 -35 10
-17 50 -18 573 -21 l561 -2 0 -33 c0 -51 -35 -178 -66 -238 -14 -29 -51 -89
-81 -133 -95 -139 -168 -310 -208 -488 l-17 -78 -118 0 -117 0 -6 72 c-16 192
-147 310 -344 309 -82 0 -193 -29 -246 -64 -21 -13 -23 -11 -59 64 -40 81
-116 174 -172 208 -54 34 -129 215 -137 332 l-4 44 122 3 c110 2 124 5 133 22
8 14 8 26 0 40 -9 17 -23 20 -133 22 l-122 3 -3 71 c-2 56 1 75 13 88 15 14
91 16 779 16 579 0 765 -3 774 -12z m463 -361 c41 -27 79 -91 79 -132 0 -135
-119 -333 -239 -399 -71 -38 -101 -46 -218 -56 -157 -13 -234 -55 -304 -163
-21 -33 -39 -56 -39 -51 0 5 14 55 32 112 31 99 33 104 75 129 62 36 124 52
240 62 122 11 176 33 244 101 71 71 131 220 115 284 -11 46 -49 56 -216 56
-82 0 -150 4 -150 9 0 5 3 23 6 40 l7 31 167 0 c157 0 169 -1 201 -23z m-1996
-308 c76 -28 151 -103 198 -198 20 -40 37 -80 37 -89 0 -8 -26 -42 -57 -76
-102 -109 -153 -234 -155 -377 0 -56 5 -88 21 -124 27 -61 27 -62 -9 -80 l-30
-15 -15 37 c-9 21 -37 69 -62 106 -42 60 -48 76 -51 133 -5 72 7 111 50 166
85 110 103 240 49 354 -16 34 -34 65 -40 69 -10 6 -61 97 -61 110 0 12 74 3
125 -16z m-200 -29 c4 -16 30 -65 60 -109 83 -126 83 -200 0 -321 -99 -144
-100 -265 -1 -409 25 -36 48 -79 52 -95 l7 -29 -49 7 c-145 21 -271 153 -319
336 -20 74 -19 255 1 333 31 120 108 236 194 293 45 30 47 29 55 -6z m911
-248 c22 -11 46 -27 53 -36 17 -20 -5 -31 -89 -46 -79 -14 -138 -47 -179 -99
-34 -43 -61 -109 -61 -150 0 -15 -12 -51 -26 -79 -31 -62 -83 -97 -159 -107
-27 -4 -65 -14 -84 -21 -18 -8 -37 -12 -41 -9 -18 11 -21 102 -5 170 34 149
139 281 276 349 41 20 94 41 119 46 65 13 150 5 196 -18z m128 -163 c35 -176
-94 -399 -285 -493 -137 -67 -254 -71 -344 -9 -35 24 -37 27 -21 39 10 7 49
18 86 24 139 23 224 113 245 255 9 63 25 94 69 133 35 31 89 51 136 52 14 1
39 7 55 15 45 20 52 18 59 -16z m834 -234 c3 -28 -6 -38 -94 -108 l-97 -77
-344 0 -344 0 31 45 c17 25 45 75 62 110 l30 65 376 -2 377 -3 3 -30z m-373
-887 c3 -7 -24 -85 -60 -173 -36 -88 -65 -165 -65 -172 0 -13 4 -12 195 11
l90 11 10 40 c6 22 23 67 39 100 15 33 30 73 32 89 6 41 31 77 49 70 22 -9 20
-19 -30 -160 -25 -69 -45 -128 -45 -130 0 -2 32 -3 71 -3 68 1 97 -6 68 -15
-8 -2 -47 -10 -88 -18 l-74 -13 -34 -100 c-19 -55 -45 -140 -60 -190 -14 -49
-27 -92 -29 -94 -9 -10 -34 24 -34 48 0 14 23 93 50 175 28 82 48 151 45 154
-4 5 -218 -23 -262 -35 -19 -4 -29 -26 -62 -127 -22 -66 -46 -152 -53 -190
-15 -73 -29 -91 -47 -57 -14 25 6 129 49 256 17 49 30 92 30 97 0 5 -18 5 -40
2 -32 -5 -41 -3 -46 10 -10 25 10 39 64 46 l47 5 74 188 c59 149 78 187 93
187 10 0 21 -6 23 -12z m-1907 -45 c19 -21 22 -33 17 -62 -9 -52 -47 -126 -65
-126 -23 0 -23 30 -1 90 12 31 21 65 21 76 0 18 -4 20 -27 14 -47 -11 -102
-55 -153 -124 -58 -77 -143 -227 -172 -303 -21 -57 -35 -170 -24 -211 14 -59
66 -73 136 -37 22 11 56 23 77 26 36 5 37 5 18 -11 -20 -16 -20 -16 2 -5 13 6
22 16 20 22 -1 6 4 13 12 16 9 3 11 0 6 -8 -5 -9 -4 -11 4 -6 6 4 9 11 6 16
-3 5 4 14 15 20 11 6 20 8 20 5 0 -4 15 9 34 27 68 67 96 91 96 81 0 -18 -154
-155 -216 -193 -52 -31 -66 -35 -131 -35 -68 0 -74 2 -106 33 -63 61 -74 167
-32 292 14 41 30 79 36 85 8 7 9 3 4 -15 -4 -14 -5 -23 -2 -20 11 11 66 122
77 156 9 27 15 33 21 23 10 -16 10 -15 13 24 1 19 21 45 66 88 107 101 177
121 228 62z m539 -199 c2 -6 -25 -40 -61 -76 -58 -58 -113 -147 -146 -233 -9
-23 -8 -23 23 -10 18 8 80 38 140 69 104 53 109 57 158 130 50 75 111 136 137
136 7 0 15 -7 19 -16 4 -10 -12 -31 -48 -63 -56 -51 -101 -117 -143 -213 l-25
-57 32 14 c99 41 234 119 259 149 15 18 41 39 58 46 28 11 34 11 58 -7 15 -11
28 -30 30 -42 5 -30 -58 -88 -103 -97 -41 -7 -49 -16 -40 -44 12 -37 56 -23
170 53 33 22 62 44 63 49 9 22 57 70 84 84 35 18 63 11 84 -21 12 -18 12 -28
3 -48 -15 -34 -65 -69 -103 -72 -27 -2 -31 -6 -31 -31 0 -51 37 -43 154 31 56
36 105 65 109 65 12 0 -45 -55 -101 -96 -103 -77 -176 -83 -203 -18 -8 19 -12
39 -9 44 11 18 -7 10 -45 -20 -47 -37 -117 -69 -151 -70 -35 0 -67 37 -71 82
l-3 37 -77 -45 c-76 -45 -76 -45 -66 -75 18 -51 -16 -229 -44 -229 -5 0 -6 -4
-3 -10 3 -5 1 -10 -6 -10 -7 0 -9 -3 -6 -7 4 -3 -1 -12 -11 -20 -10 -9 -11
-12 -2 -7 8 4 -1 -9 -19 -29 -39 -41 -88 -50 -112 -20 -35 41 -1 248 66 398
14 32 25 59 25 61 0 2 -38 -20 -84 -47 l-84 -50 10 -36 c16 -57 -18 -223 -44
-223 -6 0 -8 -3 -5 -7 4 -3 0 -11 -9 -17 -8 -6 -16 -19 -18 -29 -1 -9 -13 -28
-26 -42 -27 -28 -80 -34 -100 -10 -34 41 -15 189 44 346 l32 86 -46 -20 c-28
-12 -55 -34 -72 -58 -36 -51 -72 -60 -105 -26 -32 32 -27 73 18 141 28 42 34
46 66 42 44 -6 63 -22 63 -53 0 -21 3 -23 23 -17 53 16 76 37 113 101 69 119
166 203 181 157z m2419 -129 c19 -15 19 -15 0 -30 -11 -8 -23 -15 -28 -15 -4
0 -8 7 -8 15 0 23 -20 18 -80 -18 -65 -38 -78 -72 -33 -81 95 -18 109 -17 151
7 23 13 55 42 72 65 34 47 82 76 111 67 28 -9 52 -50 44 -75 -9 -27 -62 -66
-105 -77 -28 -7 -35 -14 -35 -34 0 -45 41 -36 154 36 57 36 106 64 108 62 9
-9 -116 -112 -162 -133 -91 -43 -145 -22 -145 56 l0 40 -40 -26 c-28 -19 -38
-30 -30 -38 15 -15 12 -92 -4 -124 -58 -110 -246 -157 -246 -61 0 24 13 43 58
88 31 31 75 66 96 77 53 26 56 41 9 49 -21 4 -51 11 -66 15 -24 8 -36 4 -79
-25 -75 -52 -96 -55 -128 -17 l-26 32 -23 -24 c-52 -55 -121 -55 -121 0 0 21
-4 25 -17 19 -10 -4 -30 -12 -45 -17 -16 -5 -28 -14 -28 -18 0 -18 -69 -80
-89 -80 -30 0 -61 35 -61 68 0 15 15 52 33 82 29 49 36 55 65 55 43 1 72 -20
72 -51 0 -13 2 -24 4 -24 16 0 96 41 96 50 0 5 9 10 20 10 25 0 25 -1 -1 -44
-11 -19 -19 -43 -17 -53 3 -15 13 -9 54 30 28 26 58 47 66 47 22 0 38 -21 38
-52 0 -20 5 -28 18 -28 26 0 112 56 118 77 11 35 21 48 63 81 36 27 51 32 95
32 31 0 60 -6 72 -15z m-2976 -195 c-6 -11 -24 -27 -41 -35 -18 -10 -27 -21
-23 -28 4 -7 4 -9 -1 -5 -4 4 -28 -7 -54 -24 -25 -17 -41 -26 -36 -20 11 12
159 131 163 132 1 0 -2 -9 -8 -20z m2297 -434 c4 -3 -34 -6 -84 -6 l-91 0 -30
-72 c-36 -87 -44 -135 -22 -130 11 3 12 1 3 -8 -15 -16 -33 -4 -33 20 0 11 12
50 26 87 42 112 42 105 -2 97 -22 -3 -45 -11 -52 -17 -7 -5 -15 -7 -19 -3 -13
13 14 27 66 33 28 3 53 9 56 12 4 8 174 -4 182 -13z m-557 -11 c10 -12 9 -20
-3 -38 -14 -22 -14 -25 4 -40 29 -25 23 -55 -19 -97 -70 -70 -186 -75 -123 -6
24 27 45 108 37 141 -6 22 -2 28 26 40 43 18 63 18 78 0z m911 -5 c51 -28 1
-100 -84 -122 -52 -13 -67 -32 -67 -86 0 -20 -3 -23 -12 -14 -9 9 -4 33 20
106 35 104 38 116 20 98 -14 -14 -28 -16 -28 -4 0 27 112 42 151 22z m-491
-107 c0 -8 -9 -17 -20 -20 -11 -3 -20 -9 -20 -14 0 -16 16 -10 59 22 48 34 71
32 71 -7 l0 -26 34 26 c39 30 66 34 66 10 0 -14 3 -14 15 -4 12 10 15 10 15
-4 0 -21 8 -20 34 2 l21 17 -20 -23 c-11 -14 -26 -21 -37 -19 -10 3 -21 1 -24
-4 -9 -15 -26 2 -20 20 4 10 -1 8 -13 -7 -11 -13 -22 -18 -26 -12 -4 6 -15 4
-30 -6 -20 -13 -26 -14 -30 -3 -6 15 -44 17 -89 4 -45 -12 -57 30 -18 62 18
14 32 8 32 -14z m516 3 c-3 -14 -1 -28 5 -32 6 -3 9 -19 5 -35 -3 -16 -2 -29
2 -29 4 0 30 22 57 50 39 39 52 47 62 38 11 -9 21 -7 44 6 34 20 37 14 9 -14
-20 -20 -19 -40 1 -40 6 0 29 18 51 40 22 22 45 37 49 34 16 -10 9 -36 -11
-41 -11 -3 -20 -9 -20 -14 0 -19 26 -8 63 26 40 36 61 43 73 23 5 -8 2 -9 -9
-5 -10 4 -22 -1 -29 -11 -27 -36 -108 -67 -108 -41 0 5 -10 3 -22 -5 -29 -21
-55 -20 -67 1 -9 17 -11 16 -30 -1 -15 -14 -25 -16 -32 -9 -7 7 -19 1 -39 -18
-40 -40 -64 -39 -57 4 3 20 -1 38 -10 49 -16 18 -11 48 8 48 7 0 9 -9 5 -24z
m452 3 c-25 -14 -23 -33 3 -26 16 4 18 3 8 -9 -6 -8 -8 -14 -5 -14 4 0 2 -9
-4 -20 -12 -23 -50 -27 -50 -6 0 7 7 19 15 26 19 16 5 33 -18 24 -11 -4 -17
-17 -17 -35 0 -21 -7 -32 -28 -43 -32 -16 -56 -8 -46 17 7 20 122 97 144 97
12 -1 11 -3 -2 -11z m-1324 -31 l-6 -23 24 23 c28 26 46 28 55 7 5 -14 8 -14
32 0 l26 16 -27 -25 c-16 -14 -28 -34 -28 -44 0 -36 -29 -115 -51 -138 -26
-28 -57 -31 -66 -8 -8 22 28 94 71 142 22 24 32 43 27 51 -6 9 -14 5 -30 -18
-25 -34 -41 -33 -41 4 0 13 -6 26 -12 28 -7 3 -3 6 10 6 20 1 22 -3 16 -21z"/>
<path d="M2760 2760 c-9 -6 -10 -10 -3 -10 6 0 15 5 18 10 8 12 4 12 -15 0z"/>
<path d="M3805 2990 c-16 -16 -24 -30 -18 -30 14 0 63 39 63 51 0 17 -16 9
-45 -21z"/>
<path d="M4073 2994 c-14 -14 -23 -28 -20 -30 8 -8 54 24 61 42 9 22 -12 16
-41 -12z"/>
<path d="M3038 2954 c-5 -4 -8 -16 -8 -28 0 -14 3 -17 11 -9 6 6 9 19 7 28 -1
9 -6 13 -10 9z"/>
<path d="M2975 2876 c-19 -44 -19 -56 -1 -56 15 0 56 45 56 61 0 5 -9 13 -20
19 -18 10 -22 7 -35 -24z"/>
<path d="M3224 2809 c-3 -6 -15 -9 -25 -6 -25 7 -33 -9 -64 -128 -30 -115 -32
-173 -8 -182 21 -8 47 24 90 113 40 85 59 214 30 214 -9 0 -19 -5 -23 -11z"/>
<path d="M3495 2810 c-4 -6 -16 -10 -27 -8 -17 2 -24 -7 -39 -50 -29 -86 -52
-207 -45 -236 22 -89 131 90 143 237 5 57 4 67 -10 67 -9 0 -19 -5 -22 -10z"/>
<path d="M5964 2993 c-13 -14 -22 -29 -19 -31 7 -7 57 30 63 46 7 21 -18 13
-44 -15z"/>
<path d="M5140 2934 c0 -14 4 -23 10 -19 6 3 10 15 10 26 0 10 -4 19 -10 19
-5 0 -10 -12 -10 -26z"/>
<path d="M5086 2881 c-20 -37 -20 -61 -2 -61 13 0 63 58 55 63 -2 2 -12 8 -21
16 -14 11 -19 8 -32 -18z"/>
<path d="M5714 2833 c-73 -54 -111 -92 -125 -125 -39 -95 121 -27 172 73 20
39 26 89 10 89 -4 0 -30 -16 -57 -37z"/>
<path d="M4513 2403 c-7 -2 -13 -17 -13 -31 l1 -27 15 28 c15 28 38 38 28 12
-4 -8 -2 -15 3 -15 11 0 33 21 33 32 0 9 -47 10 -67 1z"/>
<path d="M4505 2303 c-8 -20 -14 -37 -12 -39 6 -6 87 22 98 33 18 18 -7 43
-42 43 -24 0 -31 -7 -44 -37z"/>
<path d="M4522 2257 c-18 -7 -36 -17 -40 -23 -4 -6 -16 -14 -26 -17 -29 -11
-11 -20 26 -13 19 3 49 19 68 36 37 31 28 37 -28 17z"/>
<path d="M5405 2377 c-18 -44 -29 -87 -21 -87 17 0 83 33 103 52 28 26 29 44
4 58 -40 21 -71 12 -86 -23z"/>
<path d="M5055 2289 c-11 -17 1 -21 15 -4 8 9 8 15 2 15 -6 0 -14 -5 -17 -11z"/>
<path d="M5872 2244 c-25 -17 -29 -34 -7 -34 14 0 41 37 33 46 -2 2 -14 -3
-26 -12z"/>
<path d="M5950 2250 c-8 -5 -11 -12 -7 -16 4 -4 13 -2 19 4 15 15 7 24 -12 12z"/>
<path d="M4670 2188 c-40 -54 -54 -88 -41 -101 15 -15 57 37 71 88 7 25 10 48
7 51 -3 3 -20 -14 -37 -38z"/>
</g>
</svg>
