<?xml version="1.0" standalone="no"?>
<!DOCTYPE svg PUBLIC "-//W3C//DTD SVG 20010904//EN"
 "http://www.w3.org/TR/2001/REC-SVG-20010904/DTD/svg10.dtd">
<svg version="1.0" xmlns="http://www.w3.org/2000/svg"
 width="452.000000pt" height="472.000000pt" viewBox="0 0 452.000000 472.000000"
 preserveAspectRatio="xMidYMid meet">

<g transform="translate(0.000000,472.000000) scale(0.100000,-0.100000)"
fill="#000000" stroke="none">
<path d="M0 2360 l0 -2350 2250 0 2250 0 0 2350 0 2350 -2250 0 -2250 0 0
-2350z m1934 1463 c3 -21 8 -56 11 -78 10 -64 15 -73 26 -52 6 9 21 17 35 17
14 0 22 4 19 10 -3 6 1 10 9 10 17 0 48 -39 40 -52 -9 -14 -56 -9 -69 8 -10
14 -13 13 -28 -10 -17 -25 -46 -39 -31 -14 4 7 3 8 -4 4 -7 -4 -12 -13 -12
-20 0 -7 -18 -21 -40 -31 -22 -10 -45 -24 -51 -32 -6 -7 -18 -13 -27 -13 -15
0 -14 28 4 88 5 18 3 21 -10 16 -9 -3 -16 -2 -16 4 0 20 -44 22 -63 2 -23 -25
-32 -25 -50 0 -8 11 -17 17 -22 12 -4 -4 -6 0 -3 8 3 11 19 15 54 15 27 -1 56
-3 64 -5 10 -3 15 2 15 16 0 12 11 31 25 42 14 12 20 21 13 22 -6 0 -9 9 -6
20 4 15 0 20 -13 21 -22 2 70 27 102 28 18 1 23 -6 28 -36z m277 -21 c-7 -2
-18 1 -23 6 -8 8 -4 9 13 5 13 -4 18 -8 10 -11z m272 -24 c-6 -11 -31 -10 -37
1 -3 5 5 8 18 7 13 0 22 -4 19 -8z m-278 -85 c-25 -38 -30 -19 -9 34 18 45 19
46 22 20 2 -16 -4 -40 -13 -54z m-180 57 c3 -5 1 -10 -4 -10 -6 0 -11 5 -11
10 0 6 2 10 4 10 3 0 8 -4 11 -10z m116 -57 c5 -13 13 -21 19 -18 5 3 10 1 10
-4 0 -12 32 -14 80 -5 23 5 28 9 18 16 -9 6 -5 7 12 4 14 -3 53 -8 88 -11 35
-3 70 -9 78 -12 10 -3 12 0 8 10 -8 22 28 39 58 28 13 -6 18 -10 11 -10 -7 -1
-17 -10 -23 -21 -10 -18 -7 -22 20 -31 33 -12 55 -42 44 -60 -4 -7 -9 -8 -13
-1 -10 16 -113 73 -120 67 -3 -4 -6 -20 -7 -36 -2 -30 -48 -88 -70 -89 -7 0
-20 -12 -29 -27 -17 -26 -17 -27 4 -44 44 -36 19 -49 -99 -49 -53 0 -71 -3
-60 -10 10 -7 -23 -9 -102 -6 -65 2 -118 2 -118 0 0 -2 12 -10 28 -18 15 -8
21 -15 15 -16 -7 0 -13 -6 -13 -13 0 -9 12 -14 32 -15 55 -1 134 -44 129 -69
-3 -17 -2 -17 15 -2 30 26 47 13 29 -21 -17 -33 -19 -44 -7 -36 5 3 21 -6 36
-19 15 -13 42 -26 59 -30 77 -14 117 -28 117 -41 0 -8 -9 -14 -19 -14 -11 0
-23 -4 -26 -10 -6 -10 17 -52 26 -47 3 1 -7 -10 -23 -25 -17 -17 -28 -38 -28
-54 0 -14 -16 -51 -35 -82 -30 -50 -75 -159 -75 -184 0 -16 19 -8 25 11 3 10
17 21 31 24 19 3 24 1 20 -10 -3 -8 -6 -18 -6 -23 0 -5 -12 -10 -27 -12 -36
-4 -42 -39 -13 -68 18 -18 24 -19 38 -9 14 11 15 11 5 -1 -8 -9 -9 -19 -3 -31
7 -12 5 -19 -6 -23 -11 -4 -13 -14 -8 -43 3 -21 12 -45 19 -53 7 -8 10 -21 8
-28 -4 -11 -1 -12 13 -4 14 7 25 6 39 -5 19 -13 19 -15 3 -27 -10 -7 -18 -18
-18 -25 0 -6 -6 -11 -14 -11 -22 0 -28 -17 -14 -40 11 -18 9 -24 -21 -52 l-33
-33 6 28 c4 16 3 26 -2 24 -4 -3 -8 13 -9 36 -1 31 1 37 7 22 5 -13 7 2 5 40
-2 33 -4 60 -4 60 -1 0 -12 29 -24 64 -24 68 -47 91 -47 47 0 -17 -6 -26 -15
-26 -12 0 -14 -7 -9 -27 4 -16 10 -32 14 -38 11 -18 -6 -115 -21 -115 -16 0
-37 45 -44 95 -8 67 -55 247 -68 263 -5 6 -15 12 -23 12 -15 0 -21 -11 -83
-133 l-44 -88 -7 -192 c-5 -106 -11 -199 -15 -208 -3 -9 -1 -45 5 -80 15 -79
20 -261 7 -227 -32 80 -39 137 -47 368 -9 251 -14 290 -64 450 -13 41 -27 100
-30 130 -9 72 -17 85 -45 71 -11 -6 -27 -23 -34 -37 -13 -24 -14 -21 -30 63
-21 108 -22 185 -2 249 8 27 15 59 15 71 0 32 30 63 60 63 28 0 80 43 80 65 0
8 9 15 20 15 21 0 27 15 10 25 -6 4 -8 10 -5 15 3 4 -2 14 -11 21 -10 8 -13
21 -9 38 12 47 18 48 117 34 133 -19 254 -19 273 0 8 9 15 23 15 32 0 10 5 13
11 9 8 -5 10 1 7 20 -3 14 -3 26 0 26 15 0 82 -35 82 -43 0 -4 -6 -5 -12 -1
-10 5 -10 4 -1 -6 18 -19 30 -3 15 20 -10 16 -10 20 1 20 16 0 67 47 67 62 0
6 16 31 36 54 26 32 31 44 19 44 -9 0 -26 -11 -39 -25 -21 -22 -31 -25 -96
-25 -85 0 -148 16 -172 45 -17 20 -24 56 -12 68 11 11 35 -5 45 -30z m169 27
c0 -5 -5 -10 -11 -10 -5 0 -7 5 -4 10 3 6 8 10 11 10 2 0 4 -4 4 -10z m447
-96 c2 -5 -12 -16 -29 -24 l-33 -14 25 -7 25 -7 -24 -1 c-23 -1 -23 -2 -7 -20
16 -17 16 -19 -6 -24 -12 -4 -41 2 -65 13 -51 22 -58 35 -8 14 40 -17 91 -20
63 -4 -21 13 -18 34 13 64 24 24 40 28 46 10z m-685 -8 c7 5 8 2 4 -5 -9 -14
-48 -31 -86 -37 -19 -3 -15 2 20 24 25 16 47 25 48 21 2 -5 9 -6 14 -3z m555
-8 c-3 -8 -6 -5 -6 6 -1 11 2 17 5 13 3 -3 4 -12 1 -19z m-472 -38 c2 -4 -7
-5 -20 -2 -14 2 -25 8 -25 12 0 10 38 1 45 -10z m-287 -7 c-1 -5 18 -28 42
-52 49 -48 44 -58 -19 -41 -37 10 -39 12 -35 42 2 17 -1 38 -7 45 -9 10 -8 13
5 13 9 0 15 -3 14 -7z m87 -3 c-3 -5 -14 -10 -23 -9 -14 0 -13 2 3 9 27 11 27
11 20 0z m55 -16 c0 -8 -5 -12 -10 -9 -6 4 -8 11 -5 16 9 14 15 11 15 -7z
m927 -10 c20 -19 9 -30 -39 -39 -31 -6 -38 -4 -38 8 0 9 -10 19 -22 24 -19 6
-16 9 22 14 25 3 49 7 53 7 5 1 15 -5 24 -14z m-712 -4 c3 -5 2 -10 -4 -10 -5
0 -13 5 -16 10 -3 6 -2 10 4 10 5 0 13 -4 16 -10z m400 -20 c3 -6 -1 -7 -9 -4
-18 7 -21 14 -7 14 6 0 13 -4 16 -10z m193 -28 c9 -6 5 -12 -13 -20 -32 -15
-47 -15 -22 -1 9 6 15 14 12 20 -7 11 5 12 23 1z m-851 -38 c-3 -3 -12 -4 -19
-1 -8 3 -5 6 6 6 11 1 17 -2 13 -5z m603 -625 c7 -11 9 -27 6 -34 -6 -17 -46
-8 -46 11 0 8 -4 14 -10 14 -5 0 -7 7 -4 15 9 22 42 18 54 -6z m-260 -59 c0
-5 -9 -10 -21 -10 -11 0 -17 5 -14 10 3 6 13 10 21 10 8 0 14 -4 14 -10z m103
-365 c-3 -8 -14 -15 -24 -15 -18 0 -18 1 -2 19 18 22 35 19 26 -4z m-20 -42
c-7 -2 -21 -2 -30 0 -10 3 -4 5 12 5 17 0 24 -2 18 -5z m244 -141 c33 -51 34
-54 16 -67 -41 -31 -93 -3 -93 51 0 12 -6 34 -14 49 -8 15 -12 34 -9 41 9 23
60 -15 100 -74z m-847 -1107 c0 -8 -2 -15 -4 -15 -2 0 -6 7 -10 15 -3 8 -1 15
4 15 6 0 10 -7 10 -15z m265 -61 c106 -19 354 -23 435 -6 72 14 169 23 150 14
-36 -17 -70 -45 -70 -59 0 -9 5 -11 13 -7 8 5 8 2 -2 -9 -7 -9 -10 -17 -5 -17
5 -1 -6 -7 -23 -15 -78 -34 -291 -45 -398 -21 l-60 14 74 1 c65 1 72 3 56 14
-10 8 -15 19 -11 25 4 7 3 12 -3 12 -5 0 -12 -6 -14 -12 -4 -8 -8 -5 -12 8 -5
17 -17 23 -58 29 -50 6 -192 43 -172 44 6 1 51 -6 100 -15z m2046 -449 c60
-32 85 -106 54 -166 -15 -29 -15 -31 20 -73 29 -36 33 -45 21 -55 -11 -9 -21
-4 -48 28 -34 39 -36 40 -84 35 -61 -8 -106 12 -134 59 -66 107 57 230 171
172z"/>
<path d="M1840 3730 c-12 -8 -9 -10 12 -10 15 0 30 5 33 10 8 13 -25 13 -45 0z"/>
<path d="M1816 3605 c4 -8 8 -15 10 -15 2 0 4 7 4 15 0 8 -4 15 -10 15 -5 0
-7 -7 -4 -15z"/>
<path d="M1915 3360 c-3 -6 1 -7 9 -4 18 7 21 14 7 14 -6 0 -13 -4 -16 -10z"/>
<path d="M1941 3134 c0 -11 3 -14 6 -6 3 7 2 16 -1 19 -3 4 -6 -2 -5 -13z"/>
<path d="M1973 3063 c-18 -4 -20 -8 -13 -31 5 -15 11 -39 14 -53 4 -20 12 -26
28 -25 31 2 78 -41 78 -71 0 -18 -5 -23 -27 -23 -16 0 -34 -4 -41 -8 -19 -13
16 -38 63 -45 22 -4 41 -11 43 -17 2 -5 10 -10 18 -10 8 0 14 -8 15 -17 0 -10
4 -6 9 10 6 18 4 53 -5 95 -8 37 -15 83 -15 103 0 39 -14 56 -67 83 -31 16
-55 18 -100 9z m44 -29 c-3 -3 -12 -4 -19 -1 -8 3 -5 6 6 6 11 1 17 -2 13 -5z"/>
<path d="M3989 565 c-52 -28 -61 -103 -19 -145 74 -74 199 5 160 101 -22 52
-88 73 -141 44z"/>
</g>
</svg>
