<?xml version="1.0" standalone="no"?>
<!DOCTYPE svg PUBLIC "-//W3C//DTD SVG 20010904//EN"
 "http://www.w3.org/TR/2001/REC-SVG-20010904/DTD/svg10.dtd">
<svg version="1.0" xmlns="http://www.w3.org/2000/svg"
 width="450.000000pt" height="472.000000pt" viewBox="0 0 450.000000 472.000000"
 preserveAspectRatio="xMidYMid meet">

<g transform="translate(0.000000,472.000000) scale(0.100000,-0.100000)"
fill="#000000" stroke="none">
<path d="M10 2360 l0 -2350 2245 0 2245 0 0 2350 0 2350 -2245 0 -2245 0 0
-2350z m2422 1383 c10 -9 27 -34 38 -56 l21 -40 -63 6 c-35 3 -107 1 -161 -4
-125 -14 -145 -7 -81 27 27 14 57 36 67 50 12 15 29 24 47 24 16 0 31 4 34 8
8 13 79 1 98 -15z m98 -67 c33 -16 39 -23 34 -40 -16 -51 -21 -49 -58 16 -20
36 -36 71 -35 79 0 8 5 3 10 -11 5 -14 26 -33 49 -44z m5 26 c-3 -3 -16 5 -28
17 l-22 23 28 -17 c15 -10 25 -20 22 -23z m-520 -1 c6 -11 -25 -31 -49 -31
-14 0 -14 3 1 20 19 21 38 26 48 11z m-246 -29 c8 -15 3 -23 -31 -45 l-41 -26
27 -11 c15 -5 51 -10 79 -10 l52 -1 -39 -14 c-23 -8 -47 -10 -60 -6 -24 10
-143 26 -166 23 -26 -4 54 35 88 43 24 5 32 12 30 23 -4 18 18 41 39 42 7 0
17 -8 22 -18z m139 -9 c-10 -2 -28 -2 -40 0 -13 2 -5 4 17 4 22 1 32 -1 23 -4z
m162 -33 c0 -3 -22 -13 -48 -21 -39 -11 -49 -12 -49 -2 0 7 11 13 24 13 13 0
23 3 23 8 0 4 11 7 25 7 14 0 25 -2 25 -5z m430 -34 c0 -2 -13 -6 -30 -8 -16
-3 -30 -1 -30 4 0 4 14 8 30 8 17 0 30 -2 30 -4z m6 -37 c3 -5 0 -9 -6 -9 -6
0 -10 -8 -8 -17 2 -11 -3 -18 -12 -18 -10 0 -16 12 -18 32 -3 27 -1 31 18 26
11 -3 23 -9 26 -14z m-938 -18 c-1 -19 -7 -27 -15 -24 -7 3 -11 8 -9 12 1 3 6
14 9 24 10 26 18 20 15 -12z m322 4 c0 -8 -4 -15 -10 -15 -5 0 -7 7 -4 15 4 8
8 15 10 15 2 0 4 -7 4 -15z m28 -16 c-3 -8 -7 -3 -11 10 -4 17 -3 21 5 13 5
-5 8 -16 6 -23z m-158 -19 c13 0 13 -1 0 -11 -13 -9 -13 -10 0 -6 8 2 15 10
15 18 0 9 13 15 33 17 33 3 41 -9 23 -37 -7 -11 -25 -13 -83 -7 -40 3 -75 11
-76 16 -2 6 -9 7 -14 4 -7 -4 -8 -2 -4 4 4 7 14 12 22 12 8 0 14 4 14 9 0 6
12 3 28 -5 15 -7 34 -14 42 -14z m-125 -28 c-3 -3 -11 0 -18 7 -9 10 -8 11 6
5 10 -3 15 -9 12 -12z m908 -24 c-22 -21 -48 -16 -50 10 -1 15 5 17 34 14 35
-4 35 -5 16 -24z m-173 12 c0 -6 -46 -9 -122 -8 -119 2 -120 2 -43 8 132 10
165 10 165 0z m-720 -16 c0 -2 -9 -4 -20 -4 -11 0 -20 4 -20 9 0 5 9 7 20 4
11 -3 20 -7 20 -9z m987 10 c-3 -3 -12 -4 -19 -1 -8 3 -5 6 6 6 11 1 17 -2 13
-5z m-847 -35 c0 -17 -29 -21 -67 -11 l-38 10 38 1 c21 1 36 5 33 10 -4 5 3 7
14 4 11 -3 20 -9 20 -14z m850 -35 c0 -8 -4 -12 -10 -9 -5 3 -10 10 -10 16 0
5 5 9 10 9 6 0 10 -7 10 -16z m-625 -3 l40 -9 -50 0 c-27 -1 -68 3 -90 7 l-40
9 50 0 c28 1 68 -3 90 -7z m243 2 c-27 -2 -69 -2 -95 0 -27 2 -5 3 47 3 52 0
74 -1 48 -3z m292 -23 c0 -5 -11 -10 -25 -10 -14 0 -25 5 -25 10 0 6 11 10 25
10 14 0 25 -4 25 -10z m-519 -16 c13 -8 11 -217 -2 -251 -6 -15 -12 -38 -13
-50 -2 -12 -10 -29 -20 -38 -17 -17 -20 -38 -16 -122 2 -47 0 -53 -18 -53 -11
0 -23 6 -25 13 -3 7 -6 5 -6 -5 -1 -23 -51 -25 -51 -2 0 8 5 12 10 9 6 -3 10
-1 10 4 0 6 7 11 16 11 13 0 15 6 10 28 -4 15 -7 36 -7 47 0 66 -23 257 -35
293 -8 23 -14 63 -14 89 l0 46 76 -6 c42 -4 80 -9 85 -13z m-331 -444 c0 -5
-4 -10 -10 -10 -5 0 -10 5 -10 10 0 6 5 10 10 10 6 0 10 -4 10 -10z m-45 -143
c18 -52 42 -70 56 -44 8 13 15 13 65 -5 30 -11 58 -18 60 -15 3 3 1 22 -5 43
-6 21 -9 39 -7 41 6 6 46 -67 46 -82 0 -24 16 -25 41 -4 14 12 33 19 46 16 15
-3 23 1 23 9 0 19 13 17 42 -6 14 -10 28 -17 30 -14 3 2 11 -2 18 -11 13 -15
55 -22 46 -7 -3 5 26 -7 64 -27 39 -20 70 -42 70 -48 0 -7 7 -13 15 -13 9 0
27 -12 40 -26 13 -14 29 -23 35 -19 15 9 35 -16 35 -45 0 -18 5 -24 18 -22 24
4 22 -33 -3 -81 -26 -49 -26 -51 15 -44 l35 6 0 -50 c0 -36 4 -49 14 -49 8 0
17 4 20 9 9 14 56 20 55 7 -1 -6 -1 -19 0 -30 1 -17 3 -17 24 -4 21 15 22 14
22 -15 0 -44 21 -44 63 0 23 25 44 38 55 36 15 -4 16 -15 10 -116 -3 -62 -7
-285 -7 -497 -1 -348 1 -388 17 -420 9 -19 17 -44 17 -57 0 -12 4 -24 10 -28
5 -3 7 -12 4 -20 -4 -8 -10 -12 -15 -9 -5 3 -9 1 -9 -4 0 -6 -23 -24 -50 -42
-46 -30 -50 -35 -45 -61 8 -35 -16 -49 -130 -75 -62 -15 -119 -19 -255 -19
-202 0 -290 16 -407 71 -84 40 -119 79 -127 144 -6 44 -41 434 -71 800 -8 102
-24 266 -35 365 -30 283 -42 458 -31 464 5 4 12 18 16 33 6 24 9 26 22 13 20
-20 21 -19 16 13 -3 23 -2 24 6 7 5 -11 17 -42 26 -68z m315 47 c0 -8 -4 -12
-10 -9 -5 3 -10 10 -10 16 0 5 5 9 10 9 6 0 10 -7 10 -16z m301 -1972 c-25 -3
-31 -6 -20 -13 9 -6 -9 -9 -54 -9 -60 0 -67 2 -54 14 8 9 39 16 73 18 65 3
109 -5 55 -10z m82 11 c-7 -2 -21 -2 -30 0 -10 3 -4 5 12 5 17 0 24 -2 18 -5z
m35 -30 c-10 -2 -26 -2 -35 0 -10 3 -2 5 17 5 19 0 27 -2 18 -5z m1723 -228
c60 -32 85 -106 54 -166 -15 -29 -15 -31 20 -73 29 -36 33 -45 21 -55 -11 -9
-21 -4 -48 28 -34 39 -36 40 -84 35 -61 -8 -106 12 -134 59 -66 107 57 230
171 172z"/>
<path d="M1982 2679 c2 -7 10 -15 17 -17 8 -3 12 1 9 9 -2 7 -10 15 -17 17 -8
3 -12 -1 -9 -9z"/>
<path d="M2029 2667 c7 -10 21 -17 31 -17 10 0 34 -7 55 -16 20 -8 39 -13 42
-10 5 5 -78 43 -116 53 -23 6 -25 5 -12 -10z"/>
<path d="M2050 2395 c0 -3 6 -21 14 -39 16 -38 51 -67 72 -59 10 4 3 18 -27
54 -36 43 -59 60 -59 44z"/>
<path d="M3999 565 c-52 -28 -61 -103 -19 -145 74 -74 199 5 160 101 -22 52
-88 73 -141 44z"/>
</g>
</svg>
