<?xml version="1.0" standalone="no"?>
<!DOCTYPE svg PUBLIC "-//W3C//DTD SVG 20010904//EN"
 "http://www.w3.org/TR/2001/REC-SVG-20010904/DTD/svg10.dtd">
<svg version="1.0" xmlns="http://www.w3.org/2000/svg"
 width="452.000000pt" height="471.000000pt" viewBox="0 0 452.000000 471.000000"
 preserveAspectRatio="xMidYMid meet">

<g transform="translate(0.000000,471.000000) scale(0.100000,-0.100000)"
fill="#000000" stroke="none">
<path d="M10 2360 l0 -2350 2250 0 2250 0 0 2350 0 2350 -2250 0 -2250 0 0
-2350z m3622 1808 c280 -139 342 -519 122 -743 -286 -290 -766 -60 -741 354
11 193 122 347 297 411 44 16 74 20 151 17 88 -2 103 -6 171 -39z m-1369 -110
c13 -13 33 -31 45 -40 12 -10 22 -28 22 -41 0 -43 -29 -122 -59 -162 -17 -22
-31 -43 -31 -46 0 -9 84 14 91 24 4 5 4 18 2 28 -7 27 26 38 43 14 7 -10 11
-22 7 -28 -3 -6 -1 -7 5 -3 6 3 18 -2 28 -11 16 -16 16 -16 10 3 -3 11 -12 42
-20 70 -7 27 -16 57 -20 66 -7 15 -4 16 26 6 70 -23 100 -44 124 -85 14 -23
31 -47 39 -53 8 -6 11 -19 8 -27 -4 -10 -2 -14 4 -10 13 8 28 -9 42 -44 7 -20
5 -33 -11 -58 l-21 -33 -22 28 c-21 27 -23 27 -29 8 -3 -11 -25 -39 -47 -63
l-41 -42 39 7 c49 9 63 20 63 52 0 28 9 25 15 -6 2 -11 9 -29 17 -41 11 -18
11 -23 -2 -31 -8 -5 -12 -12 -8 -15 10 -10 58 38 64 65 4 14 6 44 5 68 0 34 3
42 18 42 24 0 55 -35 48 -55 -4 -9 6 -29 24 -50 24 -27 27 -34 13 -30 -11 3
-5 -1 12 -9 30 -14 58 -53 32 -43 -7 2 -12 10 -10 17 2 9 -5 8 -22 -4 -14 -9
-31 -16 -38 -15 -10 0 -10 2 -1 6 10 3 10 7 0 17 -9 11 -20 3 -55 -35 -24 -27
-50 -49 -57 -49 -7 0 -18 -6 -24 -13 -8 -11 -6 -13 9 -12 11 1 26 7 32 13 7 7
20 12 31 12 10 0 27 4 37 10 14 7 23 6 36 -8 16 -15 17 -15 12 0 -4 10 -1 19
9 22 11 5 13 10 4 20 -6 7 -8 16 -5 19 9 9 42 -10 74 -43 16 -16 31 -26 36
-22 4 4 4 1 0 -6 -4 -7 -16 -10 -27 -7 -11 4 -19 2 -19 -4 0 -10 27 -16 57
-12 8 1 10 -5 6 -15 -5 -13 -3 -15 8 -9 8 4 11 5 7 0 -4 -4 -3 -14 4 -22 9
-12 7 -13 -13 -8 -36 9 -77 -10 -125 -59 -23 -24 -46 -45 -51 -47 -4 -2 -18
-19 -31 -36 l-23 -33 29 0 c16 0 41 9 55 20 22 17 26 18 37 5 11 -13 10 -14
-4 -9 -12 5 -15 2 -10 -10 4 -11 1 -16 -10 -16 -9 0 -16 -5 -16 -11 0 -6 7 -9
15 -5 9 3 15 0 15 -10 0 -8 5 -12 11 -8 6 3 9 15 6 25 -4 14 0 19 16 20 12 0
16 3 10 6 -7 2 -13 11 -13 18 0 7 -7 15 -15 19 -12 4 -13 10 -3 31 7 16 17 24
26 20 9 -3 12 0 9 9 -4 10 0 12 14 9 13 -4 19 0 19 11 0 9 -7 16 -15 16 -8 0
-15 4 -15 10 0 5 7 7 15 4 8 -4 21 -1 29 5 22 18 46 2 46 -31 0 -16 4 -27 9
-23 10 6 24 -11 27 -32 1 -7 -2 -61 -7 -119 -7 -85 -13 -110 -28 -123 -11 -10
-19 -24 -19 -31 2 -35 -3 -60 -11 -60 -6 0 -8 8 -7 18 2 9 7 60 10 112 l7 95
-19 -35 c-10 -19 -30 -53 -44 -75 -14 -22 -29 -55 -33 -72 -5 -24 -12 -33 -26
-33 -11 0 -28 -5 -38 -12 -15 -9 -26 -9 -45 0 -14 6 -25 8 -25 4 3 -18 -2 -33
-9 -28 -12 7 -26 -5 -51 -47 -18 -29 -22 -48 -18 -78 5 -36 -3 -87 -20 -129
-3 -8 -8 -40 -10 -70 -3 -30 -8 -59 -13 -65 -4 -5 -8 -30 -8 -54 -1 -25 -6
-48 -14 -52 -10 -7 -10 -9 0 -9 9 0 10 -5 2 -19 -5 -11 -10 -31 -10 -45 0 -14
-5 -26 -11 -26 -6 0 -9 -10 -8 -22 3 -27 -20 -159 -31 -173 -4 -5 -10 -44 -13
-85 -4 -41 -8 -86 -11 -100 -2 -14 -7 -46 -11 -72 -3 -26 -10 -50 -16 -53 -5
-4 -6 -11 -3 -17 4 -6 3 -8 -3 -5 -5 3 -34 -7 -65 -23 -52 -25 -61 -27 -105
-18 -26 6 -53 15 -60 20 -6 5 -24 11 -40 14 -55 10 -102 25 -108 34 -11 17
-35 11 -35 -9 0 -25 27 -43 193 -127 166 -83 197 -108 197 -158 0 -36 -35
-104 -69 -136 -9 -8 -24 -27 -34 -43 -10 -15 -24 -27 -31 -27 -7 0 -25 -10
-40 -21 -15 -12 -30 -19 -33 -15 -6 6 -63 -30 -75 -49 -4 -5 -6 -15 -3 -22 2
-6 1 -13 -3 -15 -4 -2 -18 -18 -31 -36 -12 -17 -29 -32 -37 -32 -8 0 -13 -4
-10 -8 2 -4 -3 -8 -12 -9 -9 -1 -30 -3 -45 -6 -20 -3 -30 0 -34 12 -6 15 -61
71 -71 71 -2 0 -2 -6 1 -14 3 -8 1 -16 -5 -18 -7 -3 -3 -13 10 -26 21 -21 30
-52 15 -52 -5 1 -24 21 -43 46 -35 45 -35 46 -88 41 -30 -2 -58 -10 -62 -17
-5 -9 -10 2 -14 31 -13 99 -38 401 -41 504 -3 61 -9 139 -15 175 -21 134 -111
1295 -105 1345 4 28 8 66 8 85 2 28 9 39 38 58 36 24 37 24 18 43 -10 10 -19
25 -19 32 0 24 30 55 59 62 24 5 31 13 40 50 12 50 38 69 81 63 26 -4 27 -2
19 20 -5 13 -9 29 -9 37 0 26 48 70 108 100 45 22 61 35 62 51 0 11 9 29 21
40 11 10 27 33 34 51 15 35 51 57 106 66 27 4 51 20 95 65 32 33 62 60 66 61
4 0 18 -9 31 -21z m487 -578 c-19 -13 -30 -13 -30 0 0 6 10 10 23 10 18 0 19
-2 7 -10z m-590 -2258 c0 -15 -37 -30 -51 -21 -12 8 -12 10 1 19 18 12 50 13
50 2z m-402 -434 c24 -12 29 -28 9 -28 -19 0 -55 28 -68 53 -12 21 -12 21 12
4 13 -9 34 -22 47 -29z m-48 -38 c12 -23 12 -24 -3 -11 -10 7 -17 20 -17 29 0
18 3 16 20 -18z m875 -20 c3 -5 13 -6 22 -3 11 4 14 3 9 -6 -6 -9 -1 -10 18
-5 27 7 37 -10 11 -19 -23 -9 -56 1 -77 23 -15 16 -16 20 -4 20 8 0 17 -4 21
-10z m-80 -30 c0 -8 17 -19 40 -26 22 -7 35 -13 29 -13 -6 -1 -27 -3 -45 -6
-30 -4 -31 -4 -9 5 19 7 12 8 -25 3 -27 -3 -58 -13 -68 -21 -14 -13 -48 -17
-148 -20 -150 -5 -270 5 -248 20 10 7 -1 8 -36 5 -27 -2 -41 -2 -30 1 12 3 -7
11 -50 22 l-70 17 93 -5 c65 -3 92 -1 92 7 0 6 -7 11 -16 11 -8 0 -13 3 -11 8
3 4 117 7 254 7 211 0 248 -2 248 -15z m112 -26 c-3 -3 -12 -4 -19 -1 -8 3 -5
6 6 6 11 1 17 -2 13 -5z m-700 -20 c-3 -3 -12 -4 -19 -1 -8 3 -5 6 6 6 11 1
17 -2 13 -5z m566 -11 c-7 -2 -21 -2 -30 0 -10 3 -4 5 12 5 17 0 24 -2 18 -5z
m1628 -48 c60 -32 85 -106 54 -166 -15 -29 -15 -31 20 -73 29 -36 33 -45 21
-55 -11 -9 -21 -4 -48 28 -34 39 -36 40 -84 35 -61 -8 -106 12 -134 59 -66
107 57 230 171 172z"/>
<path d="M3327 4180 c-246 -78 -374 -364 -270 -602 8 -21 19 -35 24 -33 4 3
11 0 15 -6 4 -8 3 -9 -4 -5 -20 12 -13 -10 16 -50 43 -58 98 -103 172 -138 60
-29 73 -31 170 -31 97 0 110 2 170 31 67 32 150 97 150 117 0 6 -17 -5 -37
-24 l-38 -34 34 37 c19 21 38 35 42 32 10 -6 44 44 69 100 31 74 43 169 30
247 -13 73 -64 194 -79 184 -5 -3 -13 0 -17 6 -4 8 -3 9 4 5 7 -4 12 -3 12 2
0 13 -35 43 -42 36 -3 -3 -9 0 -14 7 -4 8 -3 10 4 5 24 -15 11 6 -20 32 -112
95 -257 125 -391 82z m136 3 c-7 -2 -21 -2 -30 0 -10 3 -4 5 12 5 17 0 24 -2
18 -5z m-263 -86 c0 -2 -17 -19 -37 -38 l-38 -34 34 38 c33 34 41 42 41 34z
m210 -287 c41 -41 17 -130 -35 -130 -55 0 -81 95 -36 131 30 24 46 24 71 -1z
m-204 -30 c1 -19 4 -42 8 -51 10 -23 -19 -49 -55 -49 l-29 0 0 71 0 70 38 -3
c35 -3 37 -5 38 -38z m54 -16 c0 -47 3 -57 20 -61 30 -8 24 -23 -10 -23 l-30
0 0 70 c0 40 4 70 10 70 6 0 10 -25 10 -56z m247 10 l23 -39 0 43 c0 23 5 42
10 42 6 0 10 -30 10 -70 0 -39 -4 -70 -10 -70 -5 0 -21 21 -34 48 l-25 47 -1
-47 c0 -27 -4 -48 -10 -48 -6 0 -10 30 -10 71 0 81 11 87 47 23z m157 24 c36
-51 5 -118 -54 -118 l-30 0 0 70 0 70 34 0 c25 0 39 -7 50 -22z m106 12 c0 -5
-11 -10 -25 -10 -16 0 -25 -6 -25 -15 0 -8 9 -15 20 -15 11 0 20 -4 20 -9 0
-5 -9 -11 -20 -14 -20 -5 -28 -36 -10 -38 6 -1 15 -2 22 -3 6 0 13 -7 16 -13
2 -9 -8 -13 -32 -13 l-36 0 0 70 0 70 35 0 c19 0 35 -4 35 -10z m-733 -72 c-3
-8 -6 -5 -6 6 -1 11 2 17 5 13 3 -3 4 -12 1 -19z m63 18 c0 -3 -4 -8 -10 -11
-5 -3 -10 -1 -10 4 0 6 5 11 10 11 6 0 10 -2 10 -4z m720 -6 c0 -5 -4 -10 -10
-10 -5 0 -10 5 -10 10 0 6 5 10 10 10 6 0 10 -4 10 -10z m-337 -427 c-18 -2
-48 -2 -65 0 -18 2 -4 4 32 4 36 0 50 -2 33 -4z"/>
<path d="M3346 3784 c-20 -52 15 -101 48 -68 19 18 21 55 4 72 -17 17 -45 15
-52 -4z"/>
<path d="M3150 3780 c0 -15 5 -20 18 -18 9 2 17 10 17 18 0 8 -8 16 -17 18
-13 2 -18 -3 -18 -18z"/>
<path d="M3150 3719 c0 -14 5 -19 17 -17 26 5 29 38 4 38 -15 0 -21 -6 -21
-21z"/>
<path d="M3600 3755 c0 -42 2 -46 23 -43 19 3 22 9 22 43 0 34 -3 40 -22 43
-21 3 -23 -1 -23 -43z"/>
<path d="M2450 3716 c0 -22 17 -28 24 -10 9 22 8 24 -9 24 -8 0 -15 -6 -15
-14z"/>
<path d="M2288 3573 c7 -3 16 -2 19 1 4 3 -2 6 -13 5 -11 0 -14 -3 -6 -6z"/>
<path d="M2178 3563 c7 -3 16 -2 19 1 4 3 -2 6 -13 5 -11 0 -14 -3 -6 -6z"/>
<path d="M2334 3458 c-3 -4 2 -8 10 -8 8 0 17 4 20 8 3 5 -2 9 -10 9 -8 0 -17
-4 -20 -9z"/>
<path d="M2275 3430 c3 -5 12 -7 20 -3 21 7 19 13 -6 13 -11 0 -18 -4 -14 -10z"/>
<path d="M2090 3409 c0 -5 5 -7 10 -4 6 3 10 8 10 11 0 2 -4 4 -10 4 -5 0 -10
-5 -10 -11z"/>
<path d="M2688 3403 c-27 -4 -28 -5 -13 -34 9 -16 20 -29 25 -29 13 0 51 51
44 61 -5 9 -8 9 -56 2z"/>
<path d="M2850 3389 c0 -5 5 -7 10 -4 6 3 10 8 10 11 0 2 -4 4 -10 4 -5 0 -10
-5 -10 -11z"/>
<path d="M2755 3370 c3 -5 8 -10 11 -10 2 0 4 5 4 10 0 6 -5 10 -11 10 -5 0
-7 -4 -4 -10z"/>
<path d="M2606 3333 c4 -21 8 -39 9 -41 4 -4 65 27 65 32 0 3 -13 2 -30 0 -25
-4 -30 -2 -30 15 0 11 -5 23 -11 26 -7 5 -8 -5 -3 -32z"/>
<path d="M2862 3328 c3 -7 13 -14 24 -16 14 -2 16 -1 5 6 -11 8 -11 10 0 15 8
3 4 6 -9 6 -15 1 -22 -4 -20 -11z"/>
<path d="M2919 3283 c-1 -5 -1 -11 0 -16 1 -4 -11 -12 -25 -17 -19 -8 -25 -16
-21 -30 4 -16 1 -17 -18 -10 -20 8 -23 6 -22 -10 1 -11 7 -20 15 -20 20 0 72
29 72 41 0 6 5 7 12 3 7 -5 8 -3 2 7 -4 8 -7 24 -5 37 2 19 -7 34 -10 15z"/>
<path d="M1805 3260 c10 -11 19 -20 21 -20 1 0 0 9 -3 20 -3 11 -12 20 -21 20
-13 0 -12 -3 3 -20z"/>
<path d="M2806 3256 c3 -9 11 -16 16 -16 13 0 5 23 -10 28 -7 2 -10 -2 -6 -12z"/>
<path d="M2430 3256 c0 -2 9 -6 20 -9 11 -3 18 -1 14 4 -5 9 -34 13 -34 5z"/>
<path d="M2586 3235 c-3 -8 -1 -15 4 -15 6 0 10 7 10 15 0 8 -2 15 -4 15 -2 0
-6 -7 -10 -15z"/>
<path d="M2564 3194 c-5 -9 -25 -19 -44 -24 -28 -7 -24 -8 20 -4 63 7 81 18
53 32 -14 8 -21 7 -29 -4z"/>
<path d="M2046 2732 c-7 -11 40 -72 55 -72 18 0 8 27 -20 54 -16 16 -31 23
-35 18z"/>
<path d="M1660 2449 c0 -47 25 -147 41 -163 14 -15 11 40 -6 113 -21 89 -34
108 -35 50z"/>
<path d="M2466 2425 c-3 -8 -15 -15 -26 -15 -26 0 -61 -35 -54 -55 8 -21 43
-19 82 5 34 21 35 23 26 58 -7 25 -19 29 -28 7z"/>
<path d="M3999 565 c-52 -28 -61 -103 -19 -145 74 -74 199 5 160 101 -22 52
-88 73 -141 44z"/>
</g>
</svg>
