<?xml version="1.0" standalone="no"?>
<!DOCTYPE svg PUBLIC "-//W3C//DTD SVG 20010904//EN"
 "http://www.w3.org/TR/2001/REC-SVG-20010904/DTD/svg10.dtd">
<svg version="1.0" xmlns="http://www.w3.org/2000/svg"
 width="451.000000pt" height="471.000000pt" viewBox="0 0 451.000000 471.000000"
 preserveAspectRatio="xMidYMid meet">

<g transform="translate(0.000000,471.000000) scale(0.100000,-0.100000)"
fill="#000000" stroke="none">
<path d="M0 2360 l0 -2350 2250 0 2250 0 0 2350 0 2350 -2250 0 -2250 0 0
-2350z m1837 1469 c-20 -17 -34 -35 -31 -41 4 -7 2 -8 -4 -4 -18 11 -35 -37
-28 -76 3 -18 13 -46 21 -61 8 -15 12 -34 8 -42 -4 -11 2 -15 21 -15 16 0 26
6 26 15 0 8 -6 15 -14 15 -16 0 -28 63 -19 98 8 31 33 10 33 -29 0 -42 16 -43
34 -4 9 19 22 36 29 36 7 1 23 3 37 5 14 1 32 0 40 -3 8 -4 18 -7 22 -7 3 -1
10 -4 14 -8 13 -14 27 -9 15 5 -6 8 -8 17 -4 20 3 4 -2 7 -12 7 -10 0 -16 3
-12 6 7 8 157 -48 152 -57 -6 -9 81 -33 93 -25 6 3 21 2 34 -3 15 -5 31 -5 41
0 19 11 23 -1 6 -18 -7 -7 3 -17 36 -32 39 -19 48 -20 60 -7 12 12 11 16 -5
31 -27 24 -25 35 5 33 14 -1 25 -8 25 -14 0 -6 10 -9 24 -7 13 3 32 0 43 -6
15 -10 14 -10 -9 -5 -18 4 -28 2 -28 -6 0 -6 -6 -8 -12 -4 -7 4 -10 4 -6 -1 4
-4 2 -17 -3 -28 -8 -15 -8 -22 2 -28 12 -7 12 -9 0 -9 -11 0 -9 -5 5 -21 13
-14 27 -19 46 -17 15 3 25 1 22 -4 -3 -4 2 -8 10 -8 9 0 16 -4 16 -9 0 -6 -12
-6 -31 -1 -30 9 -30 9 -27 -27 2 -29 -2 -39 -22 -51 -14 -9 -22 -13 -18 -8 6
8 -59 71 -104 99 -30 19 -63 23 -53 7 4 -6 1 -9 -6 -8 -6 2 -14 -3 -16 -9 -3
-9 6 -13 27 -13 48 0 130 -58 130 -92 0 -26 15 -29 100 -19 41 5 79 5 83 1 13
-11 107 23 107 39 0 8 -6 11 -15 7 -8 -3 -15 -1 -15 5 0 19 31 21 45 3 15 -19
20 -10 16 25 -2 7 2 10 8 7 12 -8 4 53 -9 67 -9 10 -40 -19 -40 -38 0 -8 -5
-17 -12 -21 -6 -4 -8 -3 -5 3 8 12 -30 11 -75 -2 -18 -4 -28 -3 -28 4 0 6 -8
8 -17 5 -10 -3 10 9 45 26 44 22 62 37 62 51 0 10 -4 19 -10 19 -5 0 -7 6 -4
14 3 8 -3 20 -13 27 -27 20 -26 37 2 37 14 0 22 -4 20 -9 -3 -4 4 -14 16 -23
13 -9 19 -21 16 -30 -8 -21 10 -31 29 -16 9 8 11 17 5 24 -11 14 -10 46 1 46
4 0 8 -7 8 -17 0 -9 3 -14 6 -10 4 3 2 20 -4 36 -7 19 -7 31 -1 31 5 0 9 -5 9
-11 0 -5 5 -7 12 -3 8 5 9 0 6 -14 -4 -12 -2 -22 3 -22 5 0 9 8 10 18 1 33 19
-29 25 -85 4 -48 2 -61 -20 -94 -39 -58 -38 -63 17 -60 26 1 47 0 47 -2 0 -12
-92 -55 -127 -60 -21 -3 -54 -8 -73 -12 -19 -4 -70 -13 -113 -21 -89 -18 -117
-13 -117 20 0 27 -100 106 -135 106 -12 0 -53 -20 -91 -45 l-69 -46 53 2 c49
2 70 14 37 21 -9 2 1 11 24 24 l38 21 -5 -21 c-2 -12 -12 -27 -21 -34 -13 -11
-9 -12 29 -7 33 5 41 4 30 -4 -8 -6 -52 -11 -97 -11 -66 0 -81 -3 -77 -14 3
-8 -4 -16 -18 -19 -38 -10 -7 -28 61 -34 79 -7 67 -21 -25 -26 -73 -4 -119
-21 -108 -38 3 -6 -3 -13 -15 -16 -12 -3 -21 -9 -21 -14 0 -5 -10 -9 -22 -9
-16 0 -19 -3 -10 -8 8 -6 11 -25 9 -55 -3 -33 -1 -47 8 -47 21 0 25 -50 6 -69
-14 -14 -16 -33 -13 -114 2 -53 8 -97 13 -97 5 0 9 -9 9 -19 0 -11 5 -23 11
-27 8 -4 2 -12 -15 -21 -32 -17 -33 -31 -3 -35 17 -2 21 -9 19 -28 -1 -13 1
-31 4 -40 12 -26 13 -40 3 -45 -9 -6 4 -36 30 -67 8 -10 10 -18 5 -18 -5 0 -3
-4 4 -8 7 -5 15 -22 18 -38 3 -16 8 -31 12 -34 4 -3 7 -12 7 -20 0 -8 9 -16
21 -18 31 -4 85 -54 87 -79 1 -13 4 -23 8 -23 3 0 12 -18 19 -40 14 -41 37
-62 81 -73 39 -10 79 -46 79 -71 0 -24 28 -53 73 -76 15 -7 27 -17 27 -22 0
-11 46 -29 80 -32 19 -1 25 -8 27 -26 2 -43 3 -45 12 -31 19 29 34 -1 28 -56
-5 -46 -3 -57 14 -71 44 -37 47 -64 44 -359 -3 -307 -5 -320 -71 -387 -49 -49
-186 -95 -284 -96 -33 0 -41 -3 -30 -10 8 -5 26 -10 40 -10 50 -1 -4 -18 -79
-26 -55 -5 -72 -4 -67 5 5 7 -1 11 -16 11 -13 0 -29 5 -34 10 -6 6 -51 15
-100 21 -143 16 -236 44 -318 97 -22 14 -44 25 -49 24 -4 -1 -6 1 -5 5 2 5 -3
22 -9 38 -14 34 -57 503 -107 1145 -3 33 -1 45 3 30 8 -25 8 -25 15 7 5 22 14
33 29 35 15 2 24 12 27 33 l6 30 8 -30 c6 -23 48 -75 61 -75 6 0 -4 59 -13 77
-17 31 -15 39 10 40 18 2 20 0 8 -7 -13 -9 -13 -11 0 -20 8 -5 18 -10 22 -10
12 0 28 38 22 53 -3 8 2 17 10 20 9 4 16 13 16 22 0 8 5 15 10 15 6 0 5 13 -3
33 -12 28 -12 34 4 51 19 19 12 36 -21 49 -12 4 -11 6 3 6 10 1 16 5 12 10
-11 18 26 43 54 36 14 -4 28 -11 29 -16 6 -16 22 -10 22 9 0 10 11 29 25 42
14 13 25 29 25 37 0 7 10 13 22 13 20 0 19 3 -14 30 -35 29 -45 55 -50 125 -1
17 2 36 6 43 4 7 5 26 1 42 -4 18 -3 30 4 30 6 0 8 7 5 15 -4 8 -10 13 -14 10
-5 -3 -5 8 0 25 5 17 7 37 4 45 -4 9 0 12 14 8 11 -2 23 0 26 6 4 7 1 8 -8 5
-10 -4 -18 1 -22 11 -4 9 -18 21 -31 26 -19 7 -23 14 -18 30 5 13 3 19 -3 15
-5 -3 -13 6 -16 20 -4 15 -10 24 -13 21 -3 -3 -16 7 -30 24 -21 24 -32 29 -70
29 -40 0 -44 2 -41 22 2 12 14 28 26 34 16 8 20 13 10 17 -10 4 -10 8 2 20 17
18 69 25 89 12 17 -10 -13 43 -46 81 -12 14 -23 30 -25 34 -4 10 -29 13 -83
10 -22 -1 -34 -4 -27 -7 25 -10 12 -25 -17 -18 -17 3 -32 2 -36 -4 -3 -6 1
-11 11 -11 10 0 14 -3 11 -7 -4 -3 -1 -13 6 -21 9 -11 4 -11 -15 2 -16 10 -28
22 -28 27 0 5 -5 9 -11 9 -6 0 -9 -7 -5 -15 4 -13 2 -13 -14 -5 -23 12 -38 34
-19 28 7 -2 29 6 47 19 19 12 50 25 71 28 65 11 83 22 75 48 -8 24 -8 26 -6
114 2 59 4 65 45 108 24 25 50 45 58 45 7 0 -3 -14 -24 -31z m113 -6 c0 -9 12
-30 27 -45 15 -15 22 -28 16 -28 -6 0 -19 -3 -29 -7 -14 -5 -16 -2 -11 17 4
15 -1 33 -14 52 -17 23 -18 28 -5 28 9 0 16 -8 16 -17z m-91 -15 c-9 -16 -14
-19 -17 -9 -2 7 2 17 9 22 20 13 21 11 8 -13z m297 -29 c6 -11 14 -69 9 -69
-18 0 -54 27 -70 53 l-21 32 38 -3 c21 -2 41 -8 44 -13z m-313 -2 c7 3 8 2 4
-2 -14 -16 -36 -14 -29 3 4 10 7 12 10 4 2 -7 9 -9 15 -5z m776 -23 c22 -32
24 -39 12 -67 -7 -18 -16 -43 -19 -57 -3 -13 -12 -31 -19 -39 -11 -10 -11 -16
-3 -21 7 -4 -1 -9 -19 -12 -17 -2 -31 -1 -31 4 0 5 -6 6 -12 2 -7 -4 -10 -4
-6 0 3 4 9 7 13 6 7 -1 35 46 35 60 0 4 14 22 30 40 36 39 37 44 4 87 -14 18
-21 33 -17 33 4 0 19 -16 32 -36z m-19 -14 c6 -11 8 -20 6 -20 -3 0 -10 9 -16
20 -6 11 -8 20 -6 20 3 0 10 -9 16 -20z m-287 3 c-18 -2 -48 -2 -65 0 -18 2
-4 4 32 4 36 0 50 -2 33 -4z m5 -20 c-15 -2 -42 -2 -60 0 -18 2 -6 4 27 4 33
0 48 -2 33 -4z m59 1 c-3 -3 -12 -4 -19 -1 -8 3 -5 6 6 6 11 1 17 -2 13 -5z
m113 -9 c14 -16 10 -18 -14 -9 -9 3 -16 10 -16 15 0 14 16 11 30 -6z m-270
-19 c-7 -7 -14 -6 -21 1 -9 9 -7 12 9 10 14 -1 18 -5 12 -11z m280 -17 c0 -5
9 -9 19 -9 11 0 23 -5 27 -12 5 -8 2 -9 -10 -5 -10 4 -29 7 -42 7 -14 0 -22 4
-19 10 3 6 1 10 -4 10 -6 0 -11 4 -11 9 0 5 9 7 20 4 11 -3 20 -9 20 -14z
m248 -2 c9 -10 2 -13 -34 -13 -29 0 -44 5 -44 13 0 8 13 13 34 13 18 0 38 -6
44 -13z m102 -33 c0 -8 4 -13 9 -10 12 8 19 -12 27 -82 7 -68 -4 -98 -43 -113
-34 -13 -37 -7 -13 19 17 18 19 32 16 94 -2 40 -8 84 -12 97 -5 17 -4 22 4 17
7 -4 12 -14 12 -22z m-1118 -16 c-7 -7 -12 -8 -12 -2 0 14 12 26 19 19 2 -3
-1 -11 -7 -17z m1003 12 c3 -5 2 -10 -4 -10 -5 0 -13 5 -16 10 -3 6 -2 10 4
10 5 0 13 -4 16 -10z m-182 -31 c-6 -6 -17 -8 -24 -3 -9 5 -8 9 7 14 23 9 31
3 17 -11z m201 -8 c3 -5 -1 -11 -9 -14 -9 -4 -12 -1 -8 9 6 16 10 17 17 5z
m-1186 -130 c15 -10 37 -22 50 -26 13 -4 21 -9 19 -11 -3 -3 -22 2 -42 11 -51
21 -56 11 -8 -14 46 -24 38 -27 -17 -5 -31 13 -40 21 -40 40 0 29 4 29 38 5z
m218 -7 c-25 -18 -43 -18 -43 1 0 8 3 13 6 11 3 -2 15 0 26 4 28 10 34 1 11
-16z m911 -16 c-3 -7 -5 -2 -5 12 0 14 2 19 5 13 2 -7 2 -19 0 -25z m-27 -8
c0 -5 -2 -10 -4 -10 -3 0 -8 5 -11 10 -3 6 -1 10 4 10 6 0 11 -4 11 -10z
m-966 -136 c3 -8 3 -14 0 -14 -12 0 -44 21 -44 29 0 14 38 1 44 -15z m816 -49
c0 -8 -4 -15 -9 -15 -13 0 -22 16 -14 24 11 11 23 6 23 -9z m-310 -2385 c19
-6 11 -8 -33 -9 -36 -1 -56 3 -52 9 7 12 49 12 85 0z m215 -19 c-31 -13 -185
-22 -185 -11 0 5 37 11 83 13 45 1 91 4 102 4 l20 2 -20 -8z m-268 -7 c-3 -3
-12 -4 -19 -1 -8 3 -5 6 6 6 11 1 17 -2 13 -5z m61 -1 c-10 -2 -26 -2 -35 0
-10 3 -2 5 17 5 19 0 27 -2 18 -5z m1883 -248 c60 -32 85 -106 54 -166 -15
-29 -15 -31 20 -73 29 -36 33 -45 21 -55 -11 -9 -21 -4 -48 28 -34 39 -36 40
-84 35 -61 -8 -106 12 -134 59 -66 107 57 230 171 172z"/>
<path d="M1970 3691 c-32 -9 -59 -59 -39 -72 13 -8 70 -14 116 -12 16 1 20 -3
16 -14 -4 -11 -2 -14 8 -11 8 3 14 10 14 17 0 12 -78 102 -86 100 -2 -1 -15
-4 -29 -8z"/>
<path d="M2075 3670 c10 -11 22 -17 28 -13 6 4 3 12 -8 20 -28 20 -41 16 -20
-7z"/>
<path d="M2117 3643 c-13 -12 -7 -26 6 -15 6 5 23 12 37 15 22 4 21 4 -6 6
-17 0 -34 -2 -37 -6z"/>
<path d="M2260 3629 c0 -5 5 -7 10 -4 6 3 10 8 10 11 0 2 -4 4 -10 4 -5 0 -10
-5 -10 -11z"/>
<path d="M2133 3603 c-32 -6 -51 -32 -32 -44 21 -13 79 -11 79 3 0 6 7 20 17
30 15 17 15 18 -13 17 -16 -1 -39 -4 -51 -6z"/>
<path d="M2800 3578 c0 -13 4 -29 9 -37 6 -10 9 -2 8 22 -1 39 -17 53 -17 15z"/>
<path d="M2290 3573 c-19 -3 -41 -10 -48 -16 -8 -6 -22 -11 -33 -12 -27 -2
-43 -20 -35 -40 4 -12 10 -14 25 -5 11 5 28 10 39 10 11 0 31 9 45 20 14 11
34 20 46 20 14 0 19 5 15 15 -4 8 -9 14 -13 13 -3 0 -22 -3 -41 -5z"/>
<path d="M1875 3551 l-29 -6 27 -18 c16 -10 37 -32 47 -50 22 -36 26 -57 8
-39 -17 17 -28 15 -28 -4 0 -8 -4 -12 -10 -9 -6 3 -7 -1 -4 -9 3 -9 14 -16 23
-16 9 0 21 -4 27 -9 5 -5 36 -12 70 -15 53 -5 63 -3 79 14 10 11 14 20 9 20
-5 0 9 16 31 35 l40 35 -25 20 c-27 21 -45 26 -35 10 11 -18 -8 -11 -34 13
l-25 22 22 -29 c29 -38 28 -41 -12 -53 -26 -8 -36 -8 -39 2 -3 6 -20 12 -38
13 -18 0 -41 9 -51 20 -19 18 -18 19 39 32 l58 14 -40 7 c-46 9 -69 9 -110 0z
m195 -111 c-6 -11 -8 -25 -5 -30 3 -6 -3 -10 -15 -10 -22 0 -20 9 8 43 20 23
25 22 12 -3z m-65 -41 c11 -16 1 -19 -13 -3 -7 8 -8 14 -3 14 5 0 13 -5 16
-11z"/>
<path d="M2360 3556 c0 -3 9 -10 20 -16 11 -6 20 -8 20 -6 0 3 -9 10 -20 16
-11 6 -20 8 -20 6z"/>
<path d="M2410 3522 c0 -5 14 -15 30 -22 17 -7 30 -16 30 -21 0 -5 5 -9 11 -9
17 0 -3 21 -40 43 -17 10 -31 14 -31 9z"/>
<path d="M1900 2456 c0 -22 63 -178 84 -208 16 -23 16 -23 10 12 -17 90 -94
251 -94 196z"/>
<path d="M2231 2184 c0 -11 3 -14 6 -6 3 7 2 16 -1 19 -3 4 -6 -2 -5 -13z"/>
<path d="M3989 565 c-52 -28 -61 -103 -19 -145 74 -74 199 5 160 101 -22 52
-88 73 -141 44z"/>
</g>
</svg>
