<?xml version="1.0" standalone="no"?>
<!DOCTYPE svg PUBLIC "-//W3C//DTD SVG 20010904//EN"
 "http://www.w3.org/TR/2001/REC-SVG-20010904/DTD/svg10.dtd">
<svg version="1.0" xmlns="http://www.w3.org/2000/svg"
 width="451.000000pt" height="471.000000pt" viewBox="0 0 451.000000 471.000000"
 preserveAspectRatio="xMidYMid meet">

<g transform="translate(0.000000,471.000000) scale(0.100000,-0.100000)"
fill="#000000" stroke="none">
<path d="M0 2360 l0 -2350 2250 0 2250 0 0 2350 0 2350 -2250 0 -2250 0 0
-2350z m2350 1594 c39 -9 79 -24 88 -34 9 -10 28 -21 42 -25 31 -9 70 -44 70
-62 0 -7 5 -13 11 -13 17 0 115 -68 156 -109 30 -31 50 -41 98 -50 78 -16 144
-49 158 -79 8 -16 8 -35 0 -63 -10 -38 -10 -39 8 -23 18 16 19 16 19 -8 0 -31
-42 -518 -75 -868 -69 -721 -109 -1177 -121 -1373 -7 -107 -13 -125 -36 -110
-7 4 -20 8 -28 8 -10 0 -14 9 -13 28 1 15 -2 25 -8 22 -17 -11 -21 24 -5 40 9
9 16 21 16 26 0 14 -47 11 -54 -3 -3 -7 -3 -3 0 10 3 12 1 22 -5 22 -13 0 -13
-12 -1 -68 8 -32 7 -50 -4 -77 -8 -19 -13 -35 -11 -35 17 0 -99 -94 -142 -115
-145 -70 -490 -51 -679 39 l-74 35 -1 -37 c-1 -20 -1 -40 0 -44 0 -5 -3 -8 -9
-8 -15 0 -38 41 -49 90 -14 56 -193 2112 -207 2365 -6 111 -5 118 10 100 15
-20 15 -20 16 1 0 32 27 80 55 98 17 11 25 13 25 5 0 -8 7 -6 18 4 10 10 30
17 44 17 14 0 33 9 43 20 10 11 23 19 29 17 14 -5 65 20 93 46 23 20 114 62
168 77 56 15 95 32 95 41 0 5 6 9 14 9 7 0 37 23 67 50 61 56 70 58 179 34z
m-30 -3094 c-30 -5 -77 -8 -105 -8 -79 0 -5 13 85 14 74 2 74 1 20 -6z m1781
-265 c60 -32 85 -106 54 -166 -15 -29 -15 -31 20 -73 29 -36 33 -45 21 -55
-11 -9 -21 -4 -48 28 -34 39 -36 40 -84 35 -61 -8 -106 12 -134 59 -66 107 57
230 171 172z"/>
<path d="M1570 3620 c-8 -5 -12 -12 -9 -15 4 -3 12 1 19 10 14 17 11 19 -10 5z"/>
<path d="M2935 3600 c10 -11 20 -20 23 -20 3 0 -3 9 -13 20 -10 11 -20 20 -23
20 -3 0 3 -9 13 -20z"/>
<path d="M2774 3197 c-11 -13 -8 -37 6 -37 4 0 8 11 8 25 0 14 -1 25 -2 25 0
-1 -6 -6 -12 -13z"/>
<path d="M2804 3050 c0 -13 4 -16 10 -10 7 7 7 13 0 20 -6 6 -10 3 -10 -10z"/>
<path d="M2823 3004 c-13 -13 -23 -30 -23 -38 0 -8 -5 -18 -10 -21 -6 -4 -10
-3 -9 2 3 18 -2 33 -11 33 -16 0 -11 -23 9 -47 24 -28 31 -29 31 -3 0 12 7 20
16 20 12 0 15 7 12 25 -4 18 -2 23 6 16 8 -7 12 -4 13 9 2 29 -9 30 -34 4z"/>
<path d="M2789 2876 c6 -7 12 -25 13 -40 3 -29 13 -34 22 -11 3 8 0 15 -7 15
-7 0 -4 5 6 11 9 5 17 17 17 24 0 18 -16 20 -23 3 -4 -10 -6 -10 -6 0 -1 6 -8
12 -17 12 -13 0 -14 -3 -5 -14z"/>
<path d="M2772 2818 c-7 -7 -12 -15 -12 -20 0 -12 28 2 34 18 7 17 -6 18 -22
2z"/>
<path d="M2807 2729 c4 -16 8 -17 14 -7 13 19 11 28 -5 28 -9 0 -12 -7 -9 -21z"/>
<path d="M2750 2719 c0 -5 5 -7 10 -4 6 3 10 8 10 11 0 2 -4 4 -10 4 -5 0 -10
-5 -10 -11z"/>
<path d="M2770 2700 c0 -5 4 -10 9 -10 16 0 7 -35 -14 -52 -23 -20 -9 -24 16
-5 14 10 17 31 10 70 -2 11 -21 9 -21 -3z"/>
<path d="M2810 2670 c0 -19 3 -21 12 -12 9 9 9 15 0 24 -9 9 -12 7 -12 -12z"/>
<path d="M2775 2610 c-3 -5 -1 -19 5 -30 13 -24 17 -25 17 -5 0 8 -5 15 -10
15 -5 0 -7 7 -3 15 6 17 0 20 -9 5z"/>
<path d="M2817 2533 c-4 -3 -7 -11 -7 -17 0 -6 5 -5 12 2 6 6 9 14 7 17 -3 3
-9 2 -12 -2z"/>
<path d="M2760 2500 c0 -5 5 -10 11 -10 5 0 7 5 4 10 -3 6 -8 10 -11 10 -2 0
-4 -4 -4 -10z"/>
<path d="M2715 2460 c-8 -13 5 -13 25 0 13 8 13 10 -2 10 -9 0 -20 -4 -23 -10z"/>
<path d="M2760 2410 c6 -11 7 -20 3 -20 -4 0 -9 -16 -10 -35 -2 -21 2 -35 8
-35 6 0 9 9 6 19 -3 11 1 21 7 23 15 4 1 68 -15 68 -6 0 -6 -7 1 -20z"/>
<path d="M2700 2354 c0 -8 5 -12 10 -9 6 4 8 11 5 16 -9 14 -15 11 -15 -7z"/>
<path d="M2720 2333 c-21 -26 -24 -69 -6 -76 18 -7 23 -87 7 -87 -6 0 -10 -8
-10 -17 -3 -110 -7 -145 -21 -153 -10 -7 -11 -13 -4 -17 13 -10 17 -113 4
-113 -5 0 -10 -14 -10 -32 0 -25 3 -29 12 -20 7 7 17 12 23 12 5 0 1 -7 -9
-15 -21 -16 -34 -105 -16 -105 6 0 10 -9 10 -20 0 -27 28 -25 33 3 l4 22 2
-22 c0 -13 6 -23 12 -23 12 0 8 62 -6 105 -6 16 -5 17 4 5 8 -12 11 -8 11 20
0 25 -3 31 -10 20 -5 -8 -12 -11 -16 -7 -8 8 15 39 25 32 4 -2 7 12 7 30 -1
19 -6 35 -12 35 -18 0 -11 56 9 78 18 19 18 21 0 31 -14 8 -15 11 -3 12 8 1
18 1 23 0 4 0 7 15 7 35 0 22 -4 33 -11 29 -6 -4 -8 -13 -5 -21 3 -8 0 -11 -8
-8 -10 4 -10 12 3 39 9 19 21 34 27 35 14 0 24 59 12 66 -5 3 -6 9 -3 14 3 4
-3 6 -12 4 -15 -4 -18 2 -18 37 0 26 -5 44 -13 47 -9 3 -11 -3 -6 -23 5 -21 3
-26 -7 -23 -9 3 -13 18 -10 46 3 47 1 49 -19 25z m71 -176 c-13 -13 -15 1 -4
30 7 17 8 17 11 -1 2 -10 -1 -23 -7 -29z"/>
<path d="M2759 1968 c-10 -18 -9 -20 6 -15 9 4 19 7 21 7 2 0 4 7 4 15 0 22
-18 18 -31 -7z"/>
<path d="M2680 1590 c0 -49 24 -55 34 -9 9 46 8 49 -14 49 -17 0 -20 -7 -20
-40z"/>
<path d="M2720 1579 c0 -5 5 -7 10 -4 6 3 10 8 10 11 0 2 -4 4 -10 4 -5 0 -10
-5 -10 -11z"/>
<path d="M2690 1334 c0 -8 -4 -12 -10 -9 -5 3 -10 1 -10 -4 0 -20 38 -11 43 9
3 13 0 20 -9 20 -8 0 -14 -7 -14 -16z"/>
<path d="M3989 565 c-52 -28 -61 -103 -19 -145 74 -74 199 5 160 101 -22 52
-88 73 -141 44z"/>
</g>
</svg>
