<?xml version="1.0" standalone="no"?>
<!DOCTYPE svg PUBLIC "-//W3C//DTD SVG 20010904//EN"
 "http://www.w3.org/TR/2001/REC-SVG-20010904/DTD/svg10.dtd">
<svg version="1.0" xmlns="http://www.w3.org/2000/svg"
 width="451.000000pt" height="471.000000pt" viewBox="0 0 451.000000 471.000000"
 preserveAspectRatio="xMidYMid meet">

<g transform="translate(0.000000,471.000000) scale(0.100000,-0.100000)"
fill="#000000" stroke="none">
<path d="M0 2360 l0 -2350 2250 0 2250 0 0 2350 0 2350 -2250 0 -2250 0 0
-2350z m2360 1738 c57 -71 66 -78 99 -78 22 0 51 -10 74 -25 44 -30 47 -38 10
-24 -19 7 -47 7 -95 -2 -78 -14 -84 -11 -125 59 l-27 45 -25 -31 -26 -31 -33
39 -33 39 36 15 c23 10 41 27 52 51 9 19 20 32 23 28 4 -5 35 -43 70 -85z
m-194 -114 c32 -54 61 -74 71 -47 31 89 46 103 58 56 12 -50 32 -62 84 -56 40
5 51 2 72 -18 14 -13 23 -23 20 -21 -2 1 -20 -12 -39 -30 l-34 -33 -36 40
c-67 74 -66 74 -122 21 l-50 -47 35 7 c30 5 41 2 62 -17 13 -13 31 -36 39 -51
8 -16 20 -28 26 -28 6 0 30 18 54 40 65 60 76 55 72 -29 -2 -51 0 -67 8 -60 6
5 18 7 27 3 9 -3 37 5 64 17 26 13 55 23 63 23 19 1 23 26 10 60 l-10 27 -44
-30 c-52 -36 -76 -39 -76 -11 0 25 57 140 69 140 5 0 14 -14 22 -31 7 -18 25
-46 41 -63 42 -45 45 -70 15 -115 -25 -38 -26 -42 -15 -95 13 -62 23 -69 39
-28 25 61 44 102 49 102 3 0 25 -23 49 -51 38 -45 42 -53 33 -74 -10 -21 -9
-23 6 -19 14 5 15 4 2 -5 -24 -17 -30 -13 -30 18 0 17 -5 33 -10 36 -6 4 -35
-5 -66 -19 -76 -35 -88 -33 -109 13 -13 30 -25 42 -48 47 -17 3 -32 2 -36 -4
-4 -7 -12 -8 -21 -2 -18 12 -33 13 -26 2 2 -4 -13 -6 -35 -4 -21 2 -37 8 -34
12 3 5 -1 10 -7 13 -10 3 -11 11 -1 37 7 19 11 35 10 36 -4 4 -164 -24 -207
-36 -68 -19 -128 -12 -174 20 -24 16 -46 26 -50 23 -3 -4 -6 -1 -6 5 0 7 -11
12 -25 12 -30 0 -33 22 -11 75 11 26 21 35 39 35 20 0 26 -6 31 -35 8 -43 16
-48 55 -34 35 12 36 14 16 49 -19 33 -19 84 1 123 35 68 41 69 80 1z m420
-209 c-11 -8 -25 -15 -30 -15 -6 1 0 7 14 15 32 19 40 18 16 0z m-676 -81 l49
-46 128 5 c70 3 143 8 161 12 46 10 87 -10 120 -59 15 -22 37 -45 50 -51 18
-8 3 -13 -81 -27 -179 -29 -223 -23 -259 37 -15 26 -27 35 -42 33 -11 -1 -26
0 -31 4 -12 7 -131 -30 -198 -62 -26 -12 -51 -20 -54 -16 -4 3 1 6 10 6 13 0
16 10 15 44 0 24 7 59 16 77 9 17 16 40 16 50 0 17 24 38 43 39 4 0 30 -21 57
-46z m407 20 c-3 -3 -12 -4 -19 -1 -8 3 -5 6 6 6 11 1 17 -2 13 -5z m263 -143
c13 -41 8 -72 -16 -96 -27 -27 -42 -18 -50 30 -6 41 -9 45 -28 39 -15 -4 -9 4
19 29 22 20 45 36 51 37 6 0 17 -17 24 -39z m-577 -58 c34 -58 34 -58 78 -55
24 2 84 10 132 18 166 28 237 17 237 -38 0 -11 5 -16 10 -13 6 4 13 -7 16 -25
8 -36 47 -70 80 -70 13 0 44 10 69 22 l46 23 37 -20 c23 -12 38 -29 40 -42 2
-13 6 -23 8 -23 15 0 98 57 133 91 31 29 41 35 41 21 0 -29 -26 -58 -103 -115
-92 -69 -122 -84 -185 -93 -43 -5 -52 -4 -52 9 0 8 -11 18 -25 21 -14 4 -30
17 -36 29 -9 19 -16 22 -52 18 -26 -2 -55 -14 -78 -32 -19 -15 -48 -33 -62
-40 -26 -12 -30 -10 -72 31 l-45 44 -133 3 c-149 4 -168 5 -162 12 11 11 -31
41 -64 47 -20 3 -60 13 -88 21 -48 13 -52 16 -42 35 12 23 14 20 -28 42 -44
22 -43 39 2 30 29 -5 41 -1 74 25 46 37 137 81 168 81 16 0 31 -15 56 -57z
m768 29 c-6 -12 -11 -28 -11 -37 0 -13 4 -14 21 -4 12 6 29 9 39 6 9 -2 25 0
34 5 12 7 16 5 16 -7 0 -8 7 -15 15 -15 9 0 18 -6 21 -14 6 -17 -80 -101 -105
-102 -9 0 -32 15 -52 34 -40 37 -50 38 -152 5 -69 -22 -76 -6 -24 48 27 29 58
49 87 58 25 7 61 21 80 31 40 21 46 19 31 -8z m234 -214 c5 -20 2 -35 -9 -47
-15 -16 -15 -19 -1 -31 18 -15 17 -66 -3 -90 -60 -72 -73 -90 -72 -95 4 -11
-23 -65 -31 -65 -5 0 -9 -6 -9 -13 0 -17 -43 -57 -97 -91 -48 -30 -214 -70
-255 -62 -16 3 -28 2 -28 -3 0 -14 -163 -44 -275 -50 l-110 -6 -2 -35 c-8
-135 -12 -165 -23 -168 -8 -3 -9 -7 -2 -11 15 -9 21 -65 12 -106 -4 -19 -4
-37 1 -40 7 -5 6 -87 -1 -105 -1 -3 -2 -9 -1 -13 1 -4 -3 -16 -9 -27 -6 -11
-6 -21 -1 -24 10 -7 8 -57 -3 -75 -4 -7 -5 -24 -1 -38 4 -17 0 -31 -11 -44
-10 -11 -12 -19 -6 -19 7 0 12 5 12 12 0 6 3 8 6 5 4 -4 2 -13 -5 -20 -6 -8
-10 -25 -7 -38 2 -13 -1 -30 -7 -37 -5 -7 -7 -15 -4 -19 4 -3 2 -12 -4 -20 -9
-9 -8 -13 0 -13 6 0 11 -11 11 -25 0 -14 -4 -25 -10 -25 -5 0 -10 -5 -10 -11
0 -5 4 -8 9 -5 5 3 11 0 14 -7 3 -7 -3 -13 -13 -13 -10 0 -16 4 -14 8 3 4 0 8
-5 8 -6 0 -11 -6 -12 -12 0 -10 -2 -10 -6 0 -2 6 -9 12 -14 12 -6 0 -7 -5 -3
-12 4 -7 3 -8 -5 -4 -9 6 -9 11 -1 21 8 10 7 14 -2 18 -9 4 -9 6 2 6 8 1 21
10 28 22 11 17 11 20 1 17 -8 -3 -21 10 -31 29 -22 41 -22 43 -1 43 15 0 14 2
-3 15 -12 9 -14 14 -5 15 8 0 5 6 -8 18 l-22 17 23 24 c17 19 18 23 5 18 -24
-9 -34 20 -14 40 15 15 15 17 0 28 -12 9 -16 32 -18 93 -1 45 1 79 6 77 4 -3
3 9 -3 27 -5 18 -10 41 -10 51 1 9 -5 17 -11 17 -8 0 -9 3 -1 8 17 11 24 53
13 74 -7 13 -6 27 4 48 13 25 13 32 1 49 -11 14 -12 26 -4 46 11 28 5 49 -11
40 -5 -4 -5 5 1 20 20 53 25 48 -152 129 -31 14 -68 26 -81 26 -16 0 -26 7
-30 20 -3 11 -13 20 -22 20 -9 0 -30 7 -45 17 -26 15 -28 22 -34 102 -4 47 -9
104 -13 125 l-5 40 23 -25 c13 -14 21 -20 17 -15 -15 19 -8 63 13 90 12 15 18
33 14 45 -3 10 1 24 10 31 13 11 18 10 28 -3 7 -8 50 -30 97 -47 47 -18 102
-39 122 -48 29 -11 58 -14 120 -9 46 3 92 9 103 12 13 4 16 4 8 -2 -9 -6 2
-16 35 -33 26 -14 64 -36 85 -49 30 -19 56 -25 120 -29 74 -4 80 -3 69 11 -11
13 -10 17 7 26 31 17 56 13 85 -14 31 -28 74 -32 172 -14 63 11 143 56 167 93
9 13 29 29 46 36 17 7 31 17 31 23 0 5 7 15 17 22 10 7 13 17 8 25 -4 7 -9 29
-11 49 l-3 36 29 -34 c16 -19 32 -47 35 -63z m-185 -72 c0 -2 -8 -10 -17 -17
-16 -13 -17 -12 -4 4 13 16 21 21 21 13z m-770 -1492 c0 -2 -9 5 -20 16 -12
12 -18 25 -14 31 5 8 34 -32 34 -47z m278 -1101 c-10 -2 -26 -2 -35 0 -10 3
-2 5 17 5 19 0 27 -2 18 -5z m1773 -68 c60 -32 85 -106 54 -166 -15 -29 -15
-31 20 -73 29 -36 33 -45 21 -55 -11 -9 -21 -4 -48 28 -34 39 -36 40 -84 35
-61 -8 -106 12 -134 59 -66 107 57 230 171 172z"/>
<path d="M2827 3469 c-13 -7 -17 -20 -15 -49 2 -21 7 -36 11 -33 4 3 6 10 4
16 -2 7 2 27 9 45 7 17 12 32 11 32 -1 0 -10 -5 -20 -11z"/>
<path d="M2878 3203 c6 -2 18 -2 25 0 6 3 1 5 -13 5 -14 0 -19 -2 -12 -5z"/>
<path d="M2925 3133 c-11 -3 -24 -9 -29 -14 -5 -5 5 -4 24 1 51 15 55 25 5 13z"/>
<path d="M1985 2229 c-4 -6 -5 -12 -2 -15 2 -3 7 2 10 11 7 17 1 20 -8 4z"/>
<path d="M3989 565 c-52 -28 -61 -103 -19 -145 74 -74 199 5 160 101 -22 52
-88 73 -141 44z"/>
</g>
</svg>
